<svg width="50" height="50" viewBox="0 0 50 50" fill="none" xmlns="http://www.w3.org/2000/svg">
<g clip-path="url(#clip0)">
<path d="M49.9876 50V49.9979H50.0001V31.6604C50.0001 22.6896 48.0689 15.7792 37.5814 15.7792C32.5397 15.7792 29.1564 18.5458 27.7751 21.1687H27.6293V16.6167H17.6855V49.9979H28.0397V33.4687C28.0397 29.1167 28.8647 24.9083 34.2543 24.9083C39.5647 24.9083 39.6439 29.875 39.6439 33.7479V50H49.9876Z" fill="#CDCDCD"/>
<path d="M0.824951 16.6187H11.1916V50H0.824951V16.6187Z" fill="#CDCDCD"/>
<path d="M6.00417 0C2.68958 0 0 2.68958 0 6.00417C0 9.31875 2.68958 12.0646 6.00417 12.0646C9.31875 12.0646 12.0083 9.31875 12.0083 6.00417C12.0062 2.68958 9.31667 0 6.00417 0V0Z" fill="#CDCDCD"/>
</g>
<defs>
<clipPath id="clip0">
<rect width="50" height="50" fill="white"/>
</clipPath>
</defs>
</svg>
