<svg width="72" height="72" viewBox="0 0 72 72" fill="none" xmlns="http://www.w3.org/2000/svg">
<g clip-path="url(#clip0)">
<path d="M24.3619 2.07999C11.6906 6.46114 3.04329 16.8557 0.47478 30.7722C-1.49441 41.0808 2.78643 53.5371 11.0057 61.6121C16.0571 66.5089 20.5091 69.0002 27.4441 70.8899C47.2216 76.1301 68.3689 62.2136 71.5369 41.854C71.9648 39.1051 72.1363 36.6999 71.8794 36.4419C71.6224 36.1843 69.2253 36.0126 66.4854 36.0126C61.6908 36.0126 61.4341 36.0983 61.006 38.3319C59.1224 47.4378 55.869 52.7639 49.7045 56.6296C38.8311 63.5881 23.7626 61.0109 16.6564 50.8742C12.9749 45.7197 11.9474 42.5413 11.8618 36.3562C11.7762 30.2569 12.8036 26.6488 16.2283 21.6664C19.3105 17.1134 22.8208 14.6221 29.1564 12.3886L34.2934 10.6705L34.5504 5.25847C34.8071 -0.0676351 34.8071 -0.0676349 32.4956 0.0182702C31.2112 0.0182702 27.5298 0.963225 24.3619 2.07999Z" fill="url(#paint0_linear)"/>
<path d="M42.2106 17.5246C42.1248 27.1461 41.8681 35.9083 41.5257 37.1111C40.1558 42.1793 32.7926 42.6089 30.4812 37.7123C29.4536 35.5647 29.0255 35.393 23.8029 35.393C17.8097 35.393 17.6385 35.5647 19.3508 40.6332C21.7481 47.7633 28.2549 52.5739 35.6182 52.5739C40.8406 52.5739 44.8647 50.7699 48.2893 46.9042C53.0839 41.4064 53.4263 39.688 53.4263 20.9608V3.95164L50.601 2.57714C49.1456 1.88991 46.577 0.944957 45.0359 0.68724L42.2963 0L42.2106 17.5246Z" fill="url(#paint1_linear)"/>
</g>
<defs>
<linearGradient id="paint0_linear" x1="36" y1="72" x2="36" y2="0" gradientUnits="userSpaceOnUse">
<stop stop-color="#CABCC2"/>
<stop offset="1" stop-color="#E0D5D3"/>
</linearGradient>
<linearGradient id="paint1_linear" x1="35.9194" y1="52.5739" x2="35.9194" y2="0" gradientUnits="userSpaceOnUse">
<stop stop-color="#DACECE"/>
<stop offset="1" stop-color="#DAD0D0"/>
</linearGradient>
<clipPath id="clip0">
<rect width="72" height="72" fill="white"/>
</clipPath>
</defs>
</svg>
